<?xml version="1.0" encoding="UTF-8"?>
<!DOCTYPE svg PUBLIC "-//W3C//DTD SVG 1.1//EN" "http://www.w3.org/Graphics/SVG/1.1/DTD/svg11.dtd">
<svg xmlns="http://www.w3.org/2000/svg" version="1.1" width="1080px" height="1080px" style="shape-rendering:geometricPrecision; text-rendering:geometricPrecision; image-rendering:optimizeQuality; fill-rule:evenodd; clip-rule:evenodd" xmlns:xlink="http://www.w3.org/1999/xlink">
<g><path style="opacity:1" fill="#000000" d="M -0.5,-0.5 C 359.5,-0.5 719.5,-0.5 1079.5,-0.5C 1079.5,359.5 1079.5,719.5 1079.5,1079.5C 719.5,1079.5 359.5,1079.5 -0.5,1079.5C -0.5,719.5 -0.5,359.5 -0.5,-0.5 Z"/></g>
<g><path style="opacity:1" fill="#fefefe" d="M 336.5,643.5 C 336.5,632.5 336.5,621.5 336.5,610.5C 368.833,610.5 401.167,610.5 433.5,610.5C 432.026,631.346 434.526,651.679 441,671.5C 453.508,698.987 474.674,715.82 504.5,722C 532.319,727.18 559.985,726.513 587.5,720C 628.637,709.208 647.137,682.708 643,640.5C 638.67,625.508 629.837,614.008 616.5,606C 600.925,597.713 584.592,591.379 567.5,587C 540.443,580.819 513.443,574.485 486.5,568C 452.498,559.795 421.498,545.461 393.5,525C 366.349,501.866 351.516,472.366 349,436.5C 344.157,350.347 383.324,295.847 466.5,273C 509.734,263.447 553.068,263.114 596.5,272C 642.644,281.627 678.811,305.794 705,344.5C 715.566,362.862 722.566,382.529 726,403.5C 727.998,422.111 728.832,440.777 728.5,459.5C 695.833,459.5 663.167,459.5 630.5,459.5C 630.873,444.793 630.373,430.127 629,415.5C 621.666,382.167 601.166,362.334 567.5,356C 541.666,350.792 516,351.458 490.5,358C 451.87,372.093 438.37,398.927 450,438.5C 456.447,451.28 465.947,461.114 478.5,468C 490.316,474.049 502.649,478.716 515.5,482C 556.18,490.17 596.18,500.836 635.5,514C 729.498,550.17 760.998,616.336 730,712.5C 707.455,758.7 671.288,788.534 621.5,802C 583.479,812.469 544.812,815.469 505.5,811C 453.834,805.583 410.334,784.083 375,746.5C 351.231,716.37 338.397,682.037 336.5,643.5 Z"/></g>
<g><path style="opacity:1" fill="#7c7c7c" d="M 433.5,610.5 C 401.167,610.5 368.833,610.5 336.5,610.5C 336.5,621.5 336.5,632.5 336.5,643.5C 335.505,632.346 335.172,621.012 335.5,609.5C 368.338,609.168 401.004,609.502 433.5,610.5 Z"/></g>
<g><path style="opacity:1" fill="#fdd500" d="M 534.5,614.5 C 559.572,614.079 574.738,626.079 580,650.5C 580.81,673.354 570.31,688.187 548.5,695C 523.628,697.78 507.461,687.28 500,663.5C 497.747,637.282 509.247,620.949 534.5,614.5 Z"/></g>
</svg>
